<svg width="170" height="44" viewBox="0 0 170 44" fill="none" xmlns="http://www.w3.org/2000/svg">
<path d="M42.6708 43.3049H37.9289V25.7923C37.9289 19.3443 35.6539 16.1202 31.1018 16.1202C30.0471 16.1202 29.0784 16.3419 28.1935 16.7854C27.3087 17.2289 26.5397 17.8281 25.8865 18.5872C25.2333 19.3463 24.728 20.2092 24.3685 21.178C24.0089 22.1468 23.8312 23.1596 23.8312 24.2123V43.3049H19.0913V24.6557C19.0913 22.1268 18.542 20.0714 17.4474 18.4913C16.3508 16.9112 14.7289 16.1202 12.5797 16.1202C11.4851 16.1202 10.4724 16.3619 9.54565 16.8473C8.61885 17.3327 7.81788 17.9859 7.14276 18.8069C6.46763 19.6279 5.94231 20.5568 5.5628 21.5895C5.18329 22.6222 4.99354 23.665 4.99354 24.7197V43.3049H0.253672V20.7366C0.253672 19.5141 0.2317 18.2396 0.189754 16.9112C0.147809 15.5829 0.0838914 14.2026 0 12.7703H4.23652V17.7642H4.67795C6.82717 14.0128 9.98708 12.1371 14.1597 12.1371C16.1831 12.1371 17.9428 12.6864 19.4388 13.7811C20.9349 14.8777 21.9975 16.3739 22.6307 18.2696H22.7566C23.8511 16.2461 25.2533 14.7199 26.9591 13.6872C28.6669 12.6545 30.6144 12.1371 32.8075 12.1371C35.7997 12.1371 38.1906 13.2857 39.9823 15.5829C41.7739 17.8801 42.6688 21.0741 42.6688 25.1611V43.3049H42.6708ZM67.3289 43.3049L66.8874 39.3857H66.6977C64.6324 42.4619 61.5563 44 57.4676 44C56.1613 44 54.9589 43.7883 53.8643 43.3688C52.7677 42.9473 51.8189 42.348 51.02 41.567C50.221 40.7859 49.5878 39.8711 49.1244 38.8164C48.661 37.7637 48.4293 36.6031 48.4293 35.3386C48.4293 31.6292 49.9673 28.8166 53.0434 26.899C56.1194 24.9813 60.5876 24.0225 66.444 24.0225V23.3274C66.444 18.3135 64.105 15.8046 59.4271 15.8046C56.5189 15.8046 53.9482 16.5417 51.7151 18.0179L50.5765 14.7299C53.2731 13.002 56.4549 12.1371 60.1222 12.1371C67.5386 12.1371 71.2478 16.2041 71.2478 24.3381V36.0358C71.2478 37.51 71.2798 38.8503 71.3437 40.0508C71.4076 41.2534 71.5234 42.338 71.6912 43.3069H67.3289V43.3049ZM66.5079 27.5002H65.5592C57.3837 27.5002 53.295 29.9033 53.295 34.7074C53.295 36.6051 53.8004 38.0153 54.8131 38.9442C55.8238 39.8711 57.0881 40.3345 58.6062 40.3345C59.5749 40.3345 60.5337 40.1667 61.4824 39.8291C62.4312 39.4915 63.2741 39.0181 64.0112 38.4069C64.7482 37.7956 65.3494 37.0485 65.8128 36.1636C66.2762 35.2787 66.5079 34.2879 66.5079 33.1933V27.5002ZM99.4453 17.5744C97.5897 16.5617 95.4405 16.0563 92.9977 16.0563C91.2699 16.0563 89.7299 16.3619 88.3816 16.9732C87.0334 17.5844 85.8948 18.4274 84.968 19.5021C84.0412 20.5767 83.3242 21.8512 82.8188 23.3274C82.3135 24.8016 82.0598 26.4036 82.0598 28.1315C82.0598 29.9013 82.3235 31.5253 82.8508 32.9995C83.3781 34.4737 84.1152 35.7282 85.0639 36.7609C86.0107 37.7936 87.1392 38.5946 88.4455 39.1639C89.7519 39.7332 91.206 40.0169 92.8079 40.0169C95.083 40.0169 97.338 39.5115 99.5731 38.4988L100.52 42.1643C98.159 43.3448 95.2947 43.9341 91.923 43.9341C89.6879 43.9341 87.6666 43.5645 85.8529 42.8274C84.0412 42.0903 82.4813 41.0356 81.1749 39.6673C79.8686 38.297 78.8679 36.665 78.1728 34.7673C77.4777 32.8697 77.1302 30.7423 77.1302 28.3812C77.1302 25.9781 77.5197 23.7868 78.2987 21.8052C79.0777 19.8257 80.1643 18.1178 81.5545 16.6855C82.9447 15.2533 84.6205 14.1347 86.58 13.3356C88.5394 12.5346 90.6986 12.1331 93.0596 12.1331C96.1356 12.1331 98.6643 12.6824 100.646 13.7771L99.4453 17.5744ZM141.297 21.5575C141.297 24.8875 140.844 27.9217 139.937 30.6604C139.03 33.401 137.746 35.7601 136.08 37.7417C134.416 39.7233 132.413 41.2614 130.074 42.356C127.735 43.4507 125.132 44 122.268 44C119.527 44 117.021 43.4627 114.746 42.388C112.468 41.3133 110.509 39.8171 108.865 37.8995C107.221 35.9818 105.947 33.7046 105.04 31.0719C104.133 28.4391 103.682 25.5407 103.682 22.3785C103.682 19.0926 104.155 16.0683 105.104 13.3077C106.053 10.5471 107.369 8.18795 109.055 6.22636C110.741 4.26676 112.752 2.73864 115.091 1.64398C117.432 0.549326 119.993 0 122.775 0C125.556 0 128.094 0.527353 130.391 1.58006C132.688 2.63477 134.638 4.10896 136.24 6.00663C137.842 7.9043 139.084 10.1795 139.969 12.8342C140.854 15.489 141.297 18.3974 141.297 21.5575ZM136.176 21.8112C136.176 19.2823 135.838 16.9332 135.163 14.7619C134.488 12.5925 133.551 10.6949 132.351 9.07287C131.148 7.45086 129.716 6.18641 128.052 5.27952C126.388 4.37463 124.543 3.92119 122.521 3.92119C120.456 3.92119 118.571 4.37463 116.863 5.27952C115.155 6.18641 113.703 7.44886 112.5 9.07287C111.298 10.6949 110.361 12.6345 109.686 14.8897C109.011 17.145 108.675 19.5999 108.675 22.2547C108.675 24.7416 109.013 27.0708 109.686 29.2401C110.361 31.4115 111.298 33.2971 112.5 34.8992C113.701 36.5012 115.145 37.7657 116.831 38.6925C118.517 39.6194 120.37 40.0828 122.394 40.0828C124.459 40.0828 126.344 39.6194 128.052 38.6925C129.76 37.7657 131.212 36.4792 132.415 34.8353C133.617 33.1913 134.542 31.2636 135.197 29.0503C135.848 26.8371 136.176 24.424 136.176 21.8112ZM170 31.8629C170 33.6747 169.662 35.3306 168.987 36.8268C168.312 38.323 167.353 39.5994 166.111 40.6521C164.869 41.7068 163.363 42.5178 161.591 43.0871C159.821 43.6564 157.84 43.9401 155.649 43.9401C151.264 43.9401 147.789 43.0352 145.218 41.2214L146.544 37.2383C149.367 39.0081 152.507 39.893 155.964 39.893C158.872 39.893 161.127 39.1979 162.729 37.8076C164.331 36.4173 165.132 34.5636 165.132 32.2444C165.132 30.0951 164.509 28.3572 163.267 27.0288C162.022 25.7025 159.969 24.4899 157.103 23.3933C149.812 20.6547 146.167 16.6496 146.167 11.382C146.167 9.74005 146.492 8.22191 147.146 6.83162C147.799 5.44132 148.716 4.2388 149.896 3.22804C151.076 2.21728 152.477 1.43823 154.099 0.888909C155.72 0.341581 157.48 0.0679167 159.378 0.0679167C163.043 0.0679167 166.035 0.743088 168.354 2.09143L166.9 6.01062C164.835 4.70423 162.264 4.05103 159.188 4.05103C156.743 4.05103 154.762 4.66228 153.246 5.88478C151.728 7.10728 150.971 8.72929 150.971 10.7528C150.971 11.7216 151.106 12.5866 151.38 13.3456C151.654 14.1047 152.107 14.8198 152.74 15.495C153.372 16.1702 154.226 16.8134 155.301 17.4226C156.376 18.0339 157.736 18.6771 159.378 19.3503C161.273 20.1093 162.897 20.9203 164.245 21.7853C165.594 22.6502 166.7 23.5871 167.565 24.5978C168.43 25.6106 169.051 26.7172 169.431 27.9177C169.81 29.1123 170 30.4287 170 31.8629Z" fill="white"/>
</svg>
