<svg width="64" height="64" viewBox="0 0 64 64" fill="none" xmlns="http://www.w3.org/2000/svg">
<path d="M60.9281 26.304C60.8001 26.24 60.7361 26.176 60.6081 26.176C60.4801 26.112 60.4161 26.112 60.2881 26.048C60.1601 25.984 59.9681 25.984 59.7761 25.92H59.2641C59.0721 25.92 58.8801 25.92 58.7521 25.984C58.1121 26.112 57.4721 26.368 56.9601 26.88L55.6801 28.16L38.1441 45.824C38.3361 45.952 38.5281 46.08 38.6561 46.208L42.4321 49.984C42.5601 50.112 42.7521 50.304 42.8161 50.496L60.4801 32.832L61.7601 31.552C63.0401 30.272 63.0401 28.16 61.7601 26.88C61.5041 26.624 61.2481 26.432 60.9281 26.304ZM60.8641 30.656L60.0321 31.488L57.1521 28.608L57.9841 27.776C58.7521 27.008 60.0961 27.008 60.8641 27.776C61.6321 28.544 61.6321 29.888 60.8641 30.656ZM36.7361 47.36L35.0721 52.8C35.0081 53.056 35.0721 53.248 35.2001 53.44C35.3281 53.568 35.5201 53.632 35.6481 53.632H35.8401L41.2801 51.968C41.4721 51.904 41.6641 51.712 41.7281 51.52C41.7921 51.328 41.7281 51.072 41.5361 50.944L37.7601 47.104C37.6321 46.976 37.3761 46.912 37.1201 46.912C36.9281 46.976 36.8001 47.104 36.7361 47.36ZM19.8401 10.624H19.7761L18.1121 15.552H21.5041L19.8401 10.624Z" fill="white"/>
<path d="M45.76 5.88801C45.76 4.41601 44.544 3.20001 43.072 3.20001H3.96803C2.49603 3.20001 1.28003 4.41601 1.28003 5.88801V58.048C1.28003 59.584 2.49603 60.8 3.96803 60.8H43.072C44.544 60.8 45.76 59.584 45.76 58.112V49.408L42.496 52.672C42.368 52.8 42.176 52.928 42.048 52.992C41.984 52.992 41.92 53.056 41.856 53.056C41.792 53.056 41.792 53.12 41.728 53.12L36.224 54.784C36.032 54.848 35.84 54.848 35.648 54.848C35.136 54.848 34.624 54.656 34.304 54.272C33.792 53.76 33.6 52.992 33.792 52.352L35.456 46.912C35.456 46.848 35.456 46.848 35.52 46.784C35.584 46.72 35.584 46.592 35.648 46.528C35.648 46.528 35.712 46.464 35.712 46.4C35.776 46.272 35.84 46.208 35.968 46.08L45.76 36.288V5.88801ZM24.896 14.528C24.896 14.464 24.96 14.4 24.96 14.336C24.96 14.272 25.024 14.272 25.024 14.208H27.648V11.328C27.648 11.328 27.712 11.264 27.776 11.264C27.84 11.264 27.84 11.2 27.968 11.2H28.48C28.544 11.2 28.608 11.2 28.672 11.264C28.736 11.264 28.736 11.328 28.736 11.328V14.208H31.36C31.36 14.208 31.424 14.272 31.424 14.336C31.424 14.4 31.488 14.464 31.488 14.528V15.04C31.488 15.104 31.424 15.168 31.424 15.232C31.424 15.296 31.36 15.296 31.36 15.36H28.8V18.24L28.736 18.304C28.672 18.304 28.608 18.368 28.544 18.368H28.032C27.968 18.368 27.904 18.304 27.84 18.304C27.776 18.304 27.776 18.24 27.712 18.24V15.36H25.088C25.088 15.36 25.024 15.296 25.024 15.232C25.024 15.168 24.96 15.104 24.96 15.04V14.784C24.896 14.656 24.896 14.592 24.896 14.528ZM15.744 18.688L19.008 9.60001C19.008 9.53601 19.072 9.47201 19.072 9.47201C19.072 9.40801 19.136 9.40801 19.2 9.40801C19.264 9.40801 19.328 9.40801 19.456 9.34401H20.224C20.352 9.34401 20.416 9.34401 20.48 9.40801C20.544 9.40801 20.608 9.47201 20.608 9.47201C20.608 9.47201 20.672 9.53601 20.672 9.60001L23.936 18.688C24 18.816 24 18.88 24 18.944C24 19.008 24 19.072 23.936 19.072C23.872 19.072 23.808 19.136 23.744 19.136H22.976C22.912 19.136 22.784 19.136 22.784 19.072C22.72 19.072 22.72 19.008 22.656 19.008C22.656 18.944 22.592 18.944 22.592 18.88L21.76 16.512H17.664L16.896 18.88C16.896 18.944 16.896 18.944 16.832 19.008C16.832 19.008 16.768 19.072 16.704 19.072C16.64 19.072 16.576 19.136 16.512 19.136H15.808C15.68 19.136 15.68 19.072 15.616 19.072C15.552 19.008 15.552 19.008 15.552 18.944C15.68 18.88 15.68 18.816 15.744 18.688ZM31.872 53.504H6.40003C6.01603 53.504 5.76003 53.184 5.76003 52.864C5.76003 52.544 6.01603 52.224 6.40003 52.224H31.872C32.256 52.224 32.512 52.544 32.512 52.864C32.512 53.184 32.192 53.504 31.872 53.504ZM33.472 50.112H6.40003C6.01603 50.112 5.76003 49.792 5.76003 49.472C5.76003 49.088 6.01603 48.832 6.40003 48.832H33.472C33.792 48.832 34.112 49.088 34.112 49.472C34.112 49.792 33.792 50.112 33.472 50.112ZM40.832 40.384H6.40003C6.01603 40.384 5.76003 40.064 5.76003 39.744C5.76003 39.424 6.01603 39.104 6.40003 39.104H40.768C41.152 39.104 41.408 39.424 41.408 39.744C41.408 40.064 41.152 40.384 40.832 40.384ZM40.832 37.056H6.40003C6.01603 37.056 5.76003 36.8 5.76003 36.416C5.76003 36.032 6.01603 35.776 6.40003 35.776H40.768C41.152 35.776 41.408 36.032 41.408 36.416C41.472 36.736 41.152 37.056 40.832 37.056ZM40.832 30.144H6.40003C6.01603 30.144 5.76003 29.824 5.76003 29.504C5.76003 29.184 6.01603 28.864 6.40003 28.864H40.768C41.152 28.864 41.408 29.184 41.408 29.504C41.408 29.824 41.152 30.144 40.832 30.144ZM40.832 26.752H6.40003C6.01603 26.752 5.76003 26.432 5.76003 26.112C5.76003 25.792 6.01603 25.472 6.40003 25.472H40.768C41.152 25.472 41.408 25.792 41.408 26.112C41.408 26.432 41.152 26.752 40.832 26.752Z" fill="white"/>
</svg>
