<svg width="52" height="55" viewBox="0 0 52 55" fill="none" xmlns="http://www.w3.org/2000/svg">
<path d="M9.22407 15.8447H28.9668C29.1814 15.8447 29.3872 15.7598 29.5389 15.6088C29.6907 15.4577 29.7759 15.2527 29.7759 15.0391C29.7759 14.8254 29.6907 14.6205 29.5389 14.4694C29.3872 14.3183 29.1814 14.2334 28.9668 14.2334H9.22407C9.00947 14.2334 8.80367 14.3183 8.65193 14.4694C8.50019 14.6205 8.41494 14.8254 8.41494 15.0391C8.41494 15.2527 8.50019 15.4577 8.65193 15.6088C8.80367 15.7598 9.00947 15.8447 9.22407 15.8447ZM49.195 27.6944V4.02832C49.1939 2.96029 48.7673 1.93633 48.0088 1.18112C47.2504 0.425914 46.222 0.00113741 45.1494 0L22.1701 0C21.0975 0.00113741 20.0691 0.425914 19.3107 1.18112C18.5522 1.93633 18.1256 2.96029 18.1245 4.02832V5.61387H14.0788C13.0062 5.615 11.9779 6.03978 11.2194 6.79499C10.4609 7.5502 10.0343 8.57416 10.0332 9.64219V10.4479H7.60581C6.53319 10.449 5.50483 10.8738 4.74637 11.629C3.98791 12.3842 3.56131 13.4081 3.56017 14.4762V21.0848C2.57905 21.204 1.67556 21.6763 1.01984 22.4127C0.364116 23.1491 0.00140349 24.0988 0 25.083V50.9717C0.0011423 52.0397 0.427745 53.0637 1.1862 53.8189C1.94466 54.5741 2.97302 54.9989 4.04564 55H47.9544C49.027 54.9989 50.0553 54.5741 50.8138 53.8189C51.5723 53.0637 51.9989 52.0397 52 50.9717V31.5283C51.9989 30.6762 51.727 29.8463 51.2231 29.1576C50.7192 28.4689 50.0092 27.9567 49.195 27.6944ZM19.7427 4.02832C19.7433 3.38747 19.9992 2.77303 20.4543 2.31988C20.9094 1.86673 21.5265 1.6119 22.1701 1.61133H45.1494C45.793 1.6119 46.4101 1.86673 46.8652 2.31988C47.3203 2.77303 47.5762 3.38747 47.5768 4.02832V27.5H41.1037V9.64219C41.1026 8.57416 40.676 7.5502 39.9175 6.79499C39.1591 6.03978 38.1307 5.615 37.0581 5.61387H19.7427V4.02832ZM11.6515 9.64219C11.652 9.00134 11.9079 8.3869 12.363 7.93374C12.8181 7.48059 13.4352 7.22576 14.0788 7.2252H37.0581C37.7017 7.22576 38.3188 7.48059 38.7739 7.93374C39.229 8.3869 39.4849 9.00134 39.4855 9.64219V27.5H34.6307V14.4762C34.6296 13.4081 34.203 12.3842 33.4445 11.629C32.686 10.8738 31.6577 10.449 30.5851 10.4479H11.6515V9.64219ZM5.17842 14.4762C5.17899 13.8353 5.43492 13.2209 5.89002 12.7677C6.34512 12.3146 6.9622 12.0597 7.60581 12.0592H30.5851C31.2287 12.0597 31.8458 12.3146 32.3009 12.7677C32.756 13.2209 33.0119 13.8353 33.0124 14.4762V27.5H29.311C28.9871 27.4994 28.6667 27.4346 28.3683 27.3093C28.0699 27.1841 27.7995 27.001 27.5729 26.7706L23.1627 22.2696C22.785 21.8861 22.3345 21.5812 21.8374 21.3727C21.3403 21.1641 20.8065 21.056 20.2671 21.0547H5.17842V14.4762ZM50.3817 50.9717C50.3812 51.6125 50.1252 52.227 49.6701 52.6801C49.215 53.1333 48.598 53.3881 47.9544 53.3887H4.04564C3.40204 53.3881 2.78495 53.1333 2.32985 52.6801C1.87475 52.227 1.61883 51.6125 1.61826 50.9717V25.083C1.61883 24.4422 1.87475 23.8277 2.32985 23.3746C2.78495 22.9214 3.40204 22.6666 4.04564 22.666H20.2671C20.5907 22.6668 20.9109 22.7317 21.2091 22.8569C21.5073 22.9821 21.7775 23.1652 22.004 23.3954L26.4154 27.8964C26.7929 28.28 27.2434 28.585 27.7405 28.7936C28.2377 29.0022 28.7715 29.1102 29.311 29.1113H47.9544C48.598 29.1119 49.215 29.3667 49.6701 29.8199C50.1252 30.273 50.3812 30.8875 50.3817 31.5283V50.9717ZM33.1203 35.6759H31.1471V34.8455C31.1466 34.2693 30.9164 33.7169 30.5073 33.3095C30.0981 32.9021 29.5433 32.6729 28.9646 32.6724H23.031C22.4524 32.6729 21.8976 32.9021 21.4884 33.3095C21.0792 33.7169 20.8491 34.2693 20.8485 34.8455V35.6759H18.8797C18.336 35.6759 17.8147 35.8909 17.4302 36.2737C17.0458 36.6564 16.8299 37.1756 16.8299 37.7169V47.7823C16.8299 48.3236 17.0458 48.8428 17.4302 49.2255C17.8147 49.6083 18.336 49.8233 18.8797 49.8233H33.1203C33.664 49.8233 34.1853 49.6083 34.5698 49.2255C34.9542 48.8428 35.1701 48.3236 35.1701 47.7823V37.7169C35.1701 37.1756 34.9542 36.6564 34.5698 36.2737C34.1853 35.8909 33.664 35.6759 33.1203 35.6759ZM22.4722 34.8455C22.4722 34.7717 22.4868 34.6987 22.5151 34.6305C22.5435 34.5623 22.5851 34.5004 22.6375 34.4482C22.6899 34.3961 22.7521 34.3547 22.8205 34.3265C22.889 34.2982 22.9623 34.2837 23.0364 34.2837H28.97C29.0441 34.2837 29.1175 34.2982 29.186 34.3265C29.2544 34.3547 29.3166 34.3961 29.369 34.4482C29.4214 34.5004 29.463 34.5623 29.4913 34.6305C29.5197 34.6987 29.5343 34.7717 29.5343 34.8455V35.6759H22.4711L22.4722 34.8455ZM33.5519 47.7845C33.5519 47.8984 33.5064 48.0077 33.4255 48.0883C33.3445 48.1689 33.2348 48.2142 33.1203 48.2142H18.8797C18.7652 48.2142 18.6555 48.1689 18.5745 48.0883C18.4936 48.0077 18.4481 47.8984 18.4481 47.7845V41.5465L23.5003 44.0569V45.0925C23.5009 45.5054 23.6659 45.9013 23.9591 46.1933C24.2524 46.4852 24.6499 46.6495 25.0646 46.6501H26.9375C27.3522 46.6495 27.7498 46.4852 28.043 46.1933C28.3363 45.9013 28.5013 45.5054 28.5018 45.0925V44.0569L33.5519 41.5465V47.7845ZM25.1164 45.0388V43.2824H26.8814V45.0388H25.1164ZM33.5519 39.7461L28.2461 42.3822C28.1045 42.1643 27.9104 41.985 27.6815 41.8608C27.4526 41.7366 27.1961 41.6714 26.9354 41.6711H25.0636C24.8029 41.6714 24.5464 41.7366 24.3174 41.8608C24.0885 41.985 23.8944 42.1643 23.7528 42.3822L18.4481 39.7461V37.719C18.4481 37.6051 18.4936 37.4958 18.5745 37.4152C18.6555 37.3346 18.7652 37.2894 18.8797 37.2894H33.1203C33.2348 37.2894 33.3445 37.3346 33.4255 37.4152C33.5064 37.4958 33.5519 37.6051 33.5519 37.719V39.7461ZM29.7759 18.2617C29.7759 18.048 29.6907 17.8431 29.5389 17.692C29.3872 17.5409 29.1814 17.4561 28.9668 17.4561H9.22407C9.00947 17.4561 8.80367 17.5409 8.65193 17.692C8.50019 17.8431 8.41494 18.048 8.41494 18.2617C8.41494 18.4754 8.50019 18.6803 8.65193 18.8314C8.80367 18.9825 9.00947 19.0674 9.22407 19.0674H28.9668C29.1814 19.0674 29.3872 18.9825 29.5389 18.8314C29.6907 18.6803 29.7759 18.4754 29.7759 18.2617Z" fill="white"/>
</svg>
