<svg width="68" height="68" viewBox="0 0 68 68" fill="none" xmlns="http://www.w3.org/2000/svg">
<path d="M1.35999 53.1991H40.8V66.4809L48.96 61.5849L57.12 66.4809V53.1991H66.64V1.5191H1.35999V53.1991ZM54.7604 43.9701C54.638 44.0939 54.5074 44.2081 54.3782 44.3237C54.3048 44.389 54.2368 44.4584 54.1606 44.5209C54.0763 44.5917 53.9865 44.6515 53.8995 44.7181C52.7277 45.6188 51.3318 46.1817 49.863 46.3461L49.7882 46.3569C49.2356 46.4119 48.6789 46.4119 48.1263 46.3569L48.0515 46.3461C46.5828 46.1814 45.187 45.6185 44.015 44.7181C43.928 44.6515 43.8382 44.5903 43.7539 44.5209C43.6791 44.4584 43.6097 44.389 43.5363 44.3237C43.4071 44.2081 43.2779 44.0939 43.1541 43.9701C41.642 42.4461 40.7938 40.386 40.7945 38.2391C40.7945 33.7389 44.4543 30.0791 48.9545 30.0791C53.4548 30.0791 57.1145 33.7389 57.1145 38.2391C57.12 40.3859 56.2733 42.4471 54.7604 43.9701ZM54.4 61.6773L48.96 58.4133L43.52 61.6773V47.6639C43.5662 47.6911 43.6179 47.7088 43.6655 47.7346C44.0259 47.9359 44.3972 48.1209 44.7807 48.2813L44.8324 48.3004C47.4766 49.393 50.4461 49.393 53.0903 48.3004L53.142 48.2813C53.5255 48.1209 53.8968 47.9373 54.2572 47.7346C54.3048 47.7088 54.3565 47.6911 54.4027 47.6639V61.6773H54.4ZM4.07999 4.2391H63.92V50.4791H57.12V45.4117C58.8721 43.4332 59.8396 40.8819 59.84 38.2391C59.84 32.2401 54.9589 27.3591 48.96 27.3591C42.961 27.3591 38.08 32.2401 38.08 38.2391C38.08 40.9877 39.1122 43.4941 40.8 45.4117V50.4791H4.07999V4.2391Z" fill="white"/>
<path d="M16.32 9.67914H51.68V12.3991H16.32V9.67914ZM23.12 17.8391H44.88V20.5591H23.12V17.8391ZM9.52002 42.3191H24.48V45.0391H9.52002V42.3191Z" fill="white"/>
</svg>
