<svg width="40" height="54" viewBox="0 0 40 54" fill="none" xmlns="http://www.w3.org/2000/svg">
<path d="M11.2727 52.1832C13.9494 53.5242 17.0899 53.2334 19.4761 51.444L19.9961 51.0527L20.5187 51.444C21.9055 52.4866 23.5496 53.018 25.2092 53.018C26.3998 53.018 27.6004 52.7426 28.7194 52.1832C31.3885 50.8488 33.048 48.1646 33.048 45.1793V32.637L34.2307 31.9554C36.5785 30.5904 38.2891 28.4081 39.0513 25.8132C39.0513 25.8079 39.0539 25.803 39.0539 25.7978C40.3158 21.4003 40.3158 16.7507 39.0513 12.3378C38.2891 9.74286 36.5785 7.56058 34.2205 6.19039L26.5272 1.75614C22.4994 -0.584072 17.4903 -0.585378 13.4727 1.75222L5.76137 6.19561C3.4136 7.56058 1.70301 9.74286 0.940782 12.3378C0.316118 14.4703 0 16.7379 0 19.0755C0 21.4131 0.316118 23.6807 0.940782 25.8132C1.70301 28.4081 3.4136 30.5904 5.76634 31.958L6.94414 32.6367V45.1793C6.94414 48.1646 8.60356 50.8488 11.2727 52.1832ZM27.8272 35.6478V45.1793C27.8272 46.1888 27.2868 47.0619 26.3844 47.5143C25.4846 47.968 24.4598 47.8751 23.6516 47.2684L21.5638 45.7019C21.0974 45.354 20.5466 45.1793 19.9961 45.1793C19.4455 45.1793 18.8947 45.354 18.4283 45.7019L16.3431 47.2684C15.5326 47.8725 14.5103 47.9643 13.6077 47.5143C12.7053 47.0619 12.1649 46.1888 12.1649 45.1793V35.6478L13.4649 36.3946C13.9679 36.687 14.4866 36.9428 15.0167 37.1618C16.6086 37.8201 18.304 38.1496 19.9984 38.1496C22.2546 38.1496 24.5104 37.5659 26.5168 36.3996L27.8272 35.6478ZM5.22076 19.0755C5.22076 17.2336 5.46562 15.4606 5.95246 13.8062C6.33488 12.4984 7.19891 11.3984 8.37672 10.7126L16.0854 6.27053C17.2912 5.57069 18.6423 5.22037 19.9934 5.22037C21.3472 5.22037 22.7033 5.57225 23.9142 6.27445L31.6052 10.7074C32.7932 11.3981 33.6572 12.4981 34.037 13.7908C35.0261 17.2448 35.0261 20.8968 34.0396 24.3521C33.6546 25.656 32.7906 26.7534 31.6102 27.4405L23.9064 31.8799C21.4923 33.282 18.4995 33.282 16.0753 31.8747L8.3869 27.4428C7.19891 26.7521 6.33488 25.6521 5.95246 24.3443C5.46562 22.6904 5.22076 20.9174 5.22076 19.0755Z" fill="white"/>
<path d="M14.7751 24.2963C14.7751 25.7377 15.9428 26.9067 17.3855 26.9067H22.6063C24.0491 26.9067 25.2167 25.7377 25.2167 24.2963C25.2167 22.8548 24.0491 21.6859 22.6063 21.6859V13.8548C22.6063 12.4133 21.4387 11.2444 19.9959 11.2444H17.3855C15.9428 11.2444 14.7751 12.4133 14.7751 13.8548C14.7751 15.2962 15.9428 16.4651 17.3855 16.4651V21.6859C15.9428 21.6859 14.7751 22.8548 14.7751 24.2963Z" fill="white"/>
</svg>
