<svg width="61" height="61" viewBox="0 0 61 61" fill="none" xmlns="http://www.w3.org/2000/svg">
<path d="M11.9712 57.645H49.0287C49.6926 57.6445 50.3291 57.3806 50.7986 56.9112C51.2681 56.4419 51.5321 55.8054 51.5328 55.1415V5.85842C51.5321 5.19466 51.2682 4.55828 50.7988 4.08893C50.3295 3.61959 49.6931 3.35563 49.0293 3.35498H11.9712C11.3075 3.35563 10.6711 3.61959 10.2017 4.08893C9.73238 4.55828 9.46842 5.19466 9.46777 5.85842V55.1415C9.46842 55.8053 9.73238 56.4417 10.2017 56.911C10.6711 57.3804 11.3075 57.6443 11.9712 57.645ZM41.1536 5.18498V6.96191C41.1533 7.13373 41.0849 7.29841 40.9633 7.41985C40.8418 7.54128 40.677 7.60957 40.5052 7.60973H20.4947C20.3229 7.60957 20.1582 7.54128 20.0366 7.41985C19.9151 7.29841 19.8466 7.13373 19.8463 6.96191V5.18498H41.1536ZM11.2972 5.85842C11.2973 5.67976 11.3684 5.50847 11.4948 5.38219C11.6212 5.25591 11.7926 5.18498 11.9712 5.18498H18.0163V6.96191C18.0171 7.61893 18.2785 8.24879 18.7432 8.71332C19.2078 9.17784 19.8377 9.43908 20.4947 9.43973H40.5052C41.1622 9.43908 41.7921 9.17784 42.2568 8.71332C42.7214 8.24879 42.9828 7.61893 42.9836 6.96191V5.18498H49.0287C49.2073 5.18514 49.3785 5.25614 49.5047 5.3824C49.631 5.50866 49.702 5.67986 49.7022 5.85842V55.1415C49.702 55.3201 49.631 55.4913 49.5047 55.6175C49.3785 55.7438 49.2073 55.8148 49.0287 55.815H11.9712C11.7926 55.815 11.6212 55.744 11.4948 55.6178C11.3684 55.4915 11.2973 55.3202 11.2972 55.1415V5.85842Z" fill="white"/>
<path d="M35.3562 38.3049L29.6521 45.2699L25.5419 41.6331C25.3601 41.4723 25.1218 41.3903 24.8795 41.4052C24.6372 41.42 24.4107 41.5306 24.2499 41.7124C24.0891 41.8942 24.0071 42.1325 24.022 42.3748C24.0369 42.6171 24.1474 42.8436 24.3292 43.0044L29.1513 47.2701C29.3185 47.4182 29.5342 47.5 29.7576 47.5001C29.782 47.5001 29.8064 47.4989 29.8308 47.497C29.9535 47.4871 30.0728 47.4525 30.1818 47.3954C30.2908 47.3382 30.3872 47.2598 30.4652 47.1646L36.7726 39.4652C36.9265 39.2773 36.9994 39.0361 36.9754 38.7945C36.9514 38.5529 36.8323 38.3307 36.6445 38.1768C36.4567 38.023 36.2154 37.95 35.9738 37.9741C35.7322 37.9981 35.51 38.1171 35.3562 38.3049ZM19.3108 17.263H35.2763C35.519 17.263 35.7517 17.1666 35.9233 16.995C36.0949 16.8234 36.1913 16.5907 36.1913 16.348C36.1913 16.1053 36.0949 15.8726 35.9233 15.701C35.7517 15.5294 35.519 15.433 35.2763 15.433H19.3108C19.0681 15.433 18.8353 15.5294 18.6637 15.701C18.4922 15.8726 18.3958 16.1053 18.3958 16.348C18.3958 16.5907 18.4922 16.8234 18.6637 16.995C18.8353 17.1666 19.0681 17.263 19.3108 17.263ZM19.3108 21.9691H41.6892C41.9319 21.9691 42.1646 21.8727 42.3362 21.7011C42.5078 21.5295 42.6042 21.2968 42.6042 21.0541C42.6042 20.8115 42.5078 20.5787 42.3362 20.4071C42.1646 20.2355 41.9319 20.1391 41.6892 20.1391H19.3108C19.0681 20.1391 18.8353 20.2355 18.6637 20.4071C18.4922 20.5787 18.3958 20.8115 18.3958 21.0541C18.3958 21.2968 18.4922 21.5295 18.6637 21.7011C18.8353 21.8727 19.0681 21.9691 19.3108 21.9691ZM19.3108 26.6747H41.6892C41.9319 26.6747 42.1646 26.5783 42.3362 26.4067C42.5078 26.2351 42.6042 26.0023 42.6042 25.7597C42.6042 25.517 42.5078 25.2843 42.3362 25.1127C42.1646 24.9411 41.9319 24.8447 41.6892 24.8447H19.3108C19.0681 24.8447 18.8353 24.9411 18.6637 25.1127C18.4922 25.2843 18.3958 25.517 18.3958 25.7597C18.3958 26.0023 18.4922 26.2351 18.6637 26.4067C18.8353 26.5783 19.0681 26.6747 19.3108 26.6747Z" fill="white"/>
</svg>
