<svg width="64" height="64" viewBox="0 0 64 64" fill="none" xmlns="http://www.w3.org/2000/svg">
<path d="M56 54H8C5.24 54 3 51.76 3 49V15C3 12.24 5.24 10 8 10H56C58.76 10 61 12.24 61 15V49C61 51.76 58.76 54 56 54ZM8 12C6.35 12 5 13.35 5 15V49C5 50.65 6.35 52 8 52H56C57.65 52 59 50.65 59 49V15C59 13.35 57.65 12 56 12H8Z" fill="white"/>
<path d="M21 40H13C12.45 40 12 39.55 12 39V25C12 24.45 12.45 24 13 24C13.55 24 14 24.45 14 25V38H21C21.55 38 22 38.45 22 39C22 39.55 21.55 40 21 40ZM51 40H43C42.45 40 42 39.55 42 39V25C42 24.45 42.45 24 43 24H51C51.55 24 52 24.45 52 25C52 25.55 51.55 26 51 26H44V38H51C51.55 38 52 38.45 52 39C52 39.55 51.55 40 51 40ZM25 40C24.45 40 24 39.55 24 39V25C24 24.45 24.45 24 25 24C25.55 24 26 24.45 26 25V39C26 39.55 25.55 40 25 40ZM34 40C33.58 40 33.2 39.73 33.06 39.34L28.06 25.34C27.87 24.82 28.14 24.25 28.67 24.06C29.19 23.87 29.76 24.15 29.95 24.67L34 36.03L38.06 24.67C38.24 24.15 38.82 23.88 39.34 24.06C39.86 24.25 40.13 24.82 39.95 25.34L34.95 39.34C34.8 39.73 34.42 40 34 40Z" fill="white"/>
<path d="M51 33H43C42.45 33 42 32.55 42 32C42 31.45 42.45 31 43 31H51C51.55 31 52 31.45 52 32C52 32.55 51.55 33 51 33ZM53 20C51.9 20 51 19.1 51 18C51 16.9 51.9 16 53 16C54.1 16 55 16.9 55 18C55 19.1 54.1 20 53 20Z" fill="#FCFCFC"/>
</svg>
