<svg width="71" height="67" viewBox="0 0 71 67" fill="none" xmlns="http://www.w3.org/2000/svg">
<path d="M21.9287 33.5C17.9349 33.6246 14.6684 35.2199 12.1292 38.2857H7.17397C5.15243 38.2857 3.45138 37.781 2.07085 36.7715C0.690282 35.762 0 34.2852 0 32.341C0 23.5422 1.52847 19.1429 4.5854 19.1429C4.73332 19.1429 5.26952 19.4046 6.194 19.928C7.11848 20.4515 8.3203 20.9811 9.79947 21.517C11.2786 22.0529 12.7455 22.3209 14.2 22.3209C15.8517 22.3209 17.4911 22.0342 19.1182 21.461C18.995 22.3832 18.9333 23.2057 18.9333 23.9286C18.9333 27.3932 19.9318 30.5837 21.9287 33.5ZM61.5333 57.3164C61.5333 60.3075 60.6335 62.6692 58.8338 64.4015C57.0342 66.1338 54.6429 67 51.6599 67H19.3401C16.3571 67 13.9658 66.1338 12.1662 64.4015C10.3665 62.6692 9.46665 60.3075 9.46665 57.3164C9.46665 55.9953 9.5098 54.7054 9.59609 53.4467C9.68239 52.188 9.85496 50.8295 10.1138 49.3714C10.3727 47.9132 10.6993 46.561 11.0938 45.3147C11.4882 44.0685 12.0182 42.8533 12.6838 41.6693C13.3495 40.4854 14.1137 39.4759 14.9766 38.6409C15.8394 37.8059 16.8933 37.1391 18.1383 36.6406C19.3832 36.1421 20.7576 35.8928 22.2615 35.8928C22.508 35.8928 23.038 36.1608 23.8516 36.6967C24.6651 37.2326 25.5649 37.8308 26.551 38.4913C27.5372 39.1519 28.8561 39.7501 30.5078 40.286C32.1595 40.8219 33.8236 41.0899 35.5 41.0899C37.1764 41.0899 38.8405 40.8219 40.4922 40.286C42.1439 39.7501 43.4628 39.1519 44.449 38.4913C45.4351 37.8308 46.3349 37.2326 47.1484 36.6967C47.962 36.1608 48.492 35.8928 48.7385 35.8928C50.2424 35.8928 51.6168 36.1421 52.8617 36.6406C54.1067 37.1391 55.1606 37.8059 56.0234 38.6409C56.8863 39.4759 57.6505 40.4854 58.3162 41.6693C58.9818 42.8533 59.5118 44.0685 59.9063 45.3147C60.3007 46.561 60.6273 47.9132 60.8862 49.3714C61.145 50.8295 61.3176 52.188 61.4039 53.4467C61.4902 54.7054 61.5333 55.9953 61.5333 57.3164ZM23.6667 9.57145C23.6667 12.2136 22.7422 14.4693 20.8932 16.3387C19.0443 18.2082 16.8132 19.1429 14.2 19.1429C11.5868 19.1429 9.35574 18.2082 7.50678 16.3387C5.65783 14.4693 4.73335 12.2136 4.73335 9.57145C4.73335 6.92932 5.65783 4.67355 7.50678 2.80413C9.35574 0.934709 11.5868 0 14.2 0C16.8132 0 19.0443 0.934709 20.8932 2.80413C22.7422 4.67355 23.6667 6.92932 23.6667 9.57145ZM49.7 23.9286C49.7 27.8918 48.3133 31.2754 45.5398 34.0795C42.7664 36.8837 39.4198 38.2857 35.5 38.2857C31.5802 38.2857 28.2336 36.8837 25.4602 34.0795C22.6867 31.2754 21.3 27.8918 21.3 23.9286C21.3 19.9654 22.6867 16.5818 25.4602 13.7776C28.2336 10.9735 31.5802 9.57145 35.5 9.57145C39.4198 9.57145 42.7664 10.9735 45.5398 13.7776C48.3133 16.5818 49.7 19.9654 49.7 23.9286ZM71 32.341C71 34.2852 70.3097 35.762 68.9292 36.7715C67.5486 37.781 65.8476 38.2857 63.826 38.2857H58.8708C56.3316 35.2199 53.0651 33.6246 49.0713 33.5C51.0682 30.5837 52.0667 27.3932 52.0667 23.9286C52.0667 23.2057 52.005 22.3832 51.8818 21.461C53.5089 22.0342 55.1483 22.3209 56.8 22.3209C58.2545 22.3209 59.7214 22.0529 61.2005 21.517C62.6797 20.9811 63.8815 20.4515 64.806 19.928C65.7305 19.4046 66.2667 19.1429 66.4146 19.1429C69.4715 19.1429 71 23.5422 71 32.341ZM66.2667 9.57145C66.2667 12.2136 65.3422 14.4693 63.4932 16.3387C61.6443 18.2082 59.4132 19.1429 56.8 19.1429C54.1868 19.1429 51.9557 18.2082 50.1068 16.3387C48.2578 14.4693 47.3333 12.2136 47.3333 9.57145C47.3333 6.92932 48.2578 4.67355 50.1068 2.80413C51.9557 0.934709 54.1868 0 56.8 0C59.4132 0 61.6443 0.934709 63.4932 2.80413C65.3422 4.67355 66.2667 6.92932 66.2667 9.57145Z" fill="white"/>
</svg>
