<svg width="67" height="67" viewBox="0 0 67 67" fill="none" xmlns="http://www.w3.org/2000/svg">
<path d="M54.8981 39.3415C56.5406 37.9589 57.7183 36.1047 58.2715 34.0302C58.8247 31.9557 58.7267 29.7613 57.9908 27.7444C57.2549 25.7274 55.9167 23.9856 54.1575 22.7548C52.3983 21.524 50.3032 20.8639 48.1562 20.8639C46.0093 20.8639 43.9142 21.524 42.155 22.7548C40.3958 23.9856 39.0576 25.7274 38.3217 27.7444C37.5858 29.7613 37.4878 31.9557 38.041 34.0302C38.5942 36.1047 39.7719 37.9589 41.4144 39.3415C40.9468 39.5821 40.4925 39.8477 40.0534 40.1372C38.1813 36.1676 34.9823 32.976 31.0084 31.1131C33.658 29.3908 35.68 26.8583 36.7728 23.8931C37.8656 20.9279 37.9708 17.689 37.0726 14.6591C36.1744 11.6293 34.321 8.97097 31.7887 7.08045C29.2564 5.18993 26.1809 4.16852 23.0208 4.16852C19.8606 4.16852 16.7851 5.18993 14.2529 7.08045C11.7206 8.97097 9.86716 11.6293 8.96898 14.6591C8.07079 17.689 8.17595 20.9279 9.26878 23.8931C10.3616 26.8583 12.3835 29.3908 15.0331 31.1131C11.794 32.6315 9.05406 35.0405 7.13349 38.0585C5.21292 41.0765 4.19111 44.5789 4.1875 48.1562V60.7187C4.1875 61.274 4.40809 61.8066 4.80075 62.1992C5.1934 62.5919 5.72595 62.8125 6.28125 62.8125H60.7188C61.274 62.8125 61.8066 62.5919 62.1993 62.1992C62.5919 61.8066 62.8125 61.274 62.8125 60.7187V52.3437C62.8104 49.6595 62.0712 47.0275 60.6756 44.7346C59.28 42.4418 57.2815 40.5763 54.8981 39.3415ZM41.875 31.4062C41.875 30.1639 42.2434 28.9495 42.9336 27.9165C43.6238 26.8836 44.6048 26.0785 45.7525 25.6031C46.9003 25.1277 48.1632 25.0033 49.3817 25.2457C50.6001 25.488 51.7193 26.0863 52.5978 26.9647C53.4762 27.8432 54.0744 28.9624 54.3168 30.1808C54.5592 31.3993 54.4348 32.6622 53.9594 33.81C53.484 34.9577 52.6789 35.9387 51.6459 36.6289C50.613 37.3191 49.3986 37.6875 48.1562 37.6875C46.4904 37.6875 44.8927 37.0257 43.7147 35.8477C42.5368 34.6698 41.875 33.0721 41.875 31.4062ZM12.5625 18.8437C12.5625 16.7732 13.1765 14.7492 14.3268 13.0276C15.4771 11.306 17.1121 9.96421 19.025 9.17186C20.9379 8.3795 23.0429 8.17219 25.0736 8.57613C27.1043 8.98006 28.9697 9.97712 30.4338 11.4412C31.8979 12.9053 32.8949 14.7706 33.2988 16.8014C33.7028 18.8321 33.4955 20.937 32.7031 22.8499C31.9108 24.7629 30.569 26.3978 28.8474 27.5482C27.1258 28.6985 25.1018 29.3125 23.0312 29.3125C20.2548 29.3125 17.592 28.2095 15.6287 26.2462C13.6655 24.283 12.5625 21.6202 12.5625 18.8437ZM35.5938 58.625H8.375V48.1562C8.375 44.2691 9.91914 40.5413 12.6677 37.7927C15.4163 35.0441 19.1442 33.5 23.0312 33.5C26.9183 33.5 30.6462 35.0441 33.3948 37.7927C36.1434 40.5413 37.6875 44.2691 37.6875 48.1562V58.625H35.5938ZM58.625 58.625H41.875V48.1562C41.8791 46.8765 41.7528 45.5997 41.4981 44.3456C43.3517 42.7541 45.7132 41.8778 48.1562 41.875C50.9327 41.875 53.5955 42.9779 55.5588 44.9412C57.522 46.9045 58.625 49.5672 58.625 52.3437V58.625Z" fill="white"/>
</svg>
