<svg width="71" height="71" viewBox="0 0 71 71" fill="none" xmlns="http://www.w3.org/2000/svg">
<g clip-path="url(#clip0_29_36)">
<path d="M47.7364 24.6281C47.2926 24.6281 46.8711 24.3508 46.7157 23.8959C46.2054 22.3983 44.7854 21.3888 43.199 21.3888C41.6126 21.3888 40.2037 22.3983 39.6823 23.8959C39.4937 24.4617 38.8836 24.7613 38.3178 24.5616C37.752 24.373 37.4525 23.7628 37.6522 23.197C38.462 20.823 40.6918 19.2366 43.199 19.2366C45.7062 19.2366 47.9361 20.8341 48.7459 23.197C48.9345 23.7628 48.635 24.373 48.0803 24.5616C47.9693 24.6059 47.8584 24.6281 47.7364 24.6281ZM64.2328 41.1356H61.4704C60.8714 41.1356 60.3943 40.6586 60.3943 40.0595C60.3943 39.4605 60.8714 38.9834 61.4704 38.9834H64.2328C64.3659 38.9834 64.4768 38.8725 64.4768 38.7394V32.538C64.4768 32.4049 64.3659 32.2939 64.2328 32.2939H61.4815C60.8825 32.2939 60.4054 31.8169 60.4054 31.2178C60.4054 30.6188 60.8825 30.1417 61.4815 30.1417H64.2328C65.5529 30.1417 66.629 31.2178 66.629 32.538V38.7394C66.629 40.0595 65.5529 41.1356 64.2328 41.1356ZM24.3618 41.1356H21.5995C20.2793 41.1356 19.2032 40.0595 19.2032 38.7394V32.538C19.2032 31.2178 20.2793 30.1417 21.5995 30.1417H24.3618C24.9609 30.1417 25.4379 30.6188 25.4379 31.2178C25.4379 31.8169 24.9609 32.2939 24.3618 32.2939H21.5995C21.4664 32.2939 21.3554 32.4049 21.3554 32.538V38.7394C21.3554 38.8725 21.4664 38.9834 21.5995 38.9834H24.3618C24.9609 38.9834 25.4379 39.4605 25.4379 40.0595C25.4379 40.6586 24.9609 41.1356 24.3618 41.1356ZM36.332 52.1628C35.7329 52.1628 35.2559 51.6858 35.2559 51.0867V47.7142C35.2559 47.1152 35.7329 46.6381 36.332 46.6381C36.9311 46.6381 37.4081 47.1152 37.4081 47.7142V51.0867C37.4081 51.6858 36.9311 52.1628 36.332 52.1628ZM49.0122 52.1628C48.4131 52.1628 47.9361 51.6858 47.9361 51.0867V47.7142C47.9361 47.1152 48.4131 46.6381 49.0122 46.6381C49.6112 46.6381 50.0882 47.1152 50.0882 47.7142V51.0867C50.0882 51.6858 49.6001 52.1628 49.0122 52.1628Z" fill="white"/>
<path d="M50.2214 48.8014H35.6109C32.1497 48.8014 28.8881 47.4702 26.4253 45.0628C23.8626 42.5778 22.4426 39.2275 22.4426 35.6332C22.4426 32.1164 23.8072 28.8216 26.2922 26.3366C28.7883 23.8516 32.0942 22.4871 35.5998 22.4871H50.2103C54.0154 22.4871 57.632 24.1289 60.1281 27.0022C62.2248 29.3874 63.3786 32.4603 63.3786 35.6442C63.3786 39.1721 62.0029 42.478 59.5068 44.963C57.044 47.4258 53.7381 48.8014 50.2214 48.8014ZM35.6109 24.6282C32.6711 24.6282 29.9087 25.7708 27.812 27.8564C25.7375 29.931 24.5948 32.6933 24.5948 35.6332C24.5948 38.6396 25.7818 41.4463 27.9229 43.5208C29.9864 45.5399 32.7154 46.6492 35.6109 46.6492H50.2214C53.1612 46.6492 55.9236 45.5066 57.9981 43.421C60.0837 41.3464 61.2375 38.573 61.2375 35.6332C61.2375 32.9707 60.2723 30.408 58.5195 28.4C56.4339 26.0038 53.4164 24.6282 50.2325 24.6282H35.6109Z" fill="white"/>
<path d="M51.1422 39.9375C50.3212 39.9375 49.4892 39.6823 48.757 39.2053C48.7237 39.1831 48.6793 39.1498 48.6461 39.1276C47.5145 38.3289 46.8489 37.0198 46.8489 35.622C46.8489 33.259 48.7792 31.3287 51.1422 31.3287C52.2626 31.3287 53.3387 31.7725 54.1707 32.5712C55.0028 33.4033 55.4354 34.4683 55.4354 35.622C55.4354 38.0072 53.5051 39.9375 51.1422 39.9375ZM49.9773 37.4414C50.2547 37.6078 50.654 37.7853 51.1422 37.7853C52.3292 37.7853 53.2832 36.8201 53.2832 35.622C53.2832 35.0451 53.0725 34.5237 52.6842 34.1465C52.2404 33.7139 51.6857 33.4809 51.1311 33.4809C49.944 33.4809 48.99 34.4461 48.99 35.622C48.99 36.332 49.3339 36.9976 49.9218 37.397C49.944 37.4081 49.9551 37.4303 49.9773 37.4414ZM34.6901 39.9375C33.8803 39.9375 33.0704 39.6934 32.3604 39.2386C32.3272 39.2164 32.2939 39.1942 32.2606 39.172C31.0957 38.3733 30.3968 37.042 30.3968 35.622C30.3968 33.259 32.3272 31.3287 34.6901 31.3287C35.8217 31.3287 36.9311 31.7836 37.7298 32.5823C38.5507 33.4033 38.9834 34.4683 38.9834 35.622C38.9834 38.0072 37.0531 39.9375 34.6901 39.9375ZM33.4254 37.3637C33.4476 37.3748 33.4698 37.397 33.5031 37.4081C33.8692 37.6522 34.2907 37.7853 34.6901 37.7853C35.8772 37.7853 36.8312 36.8201 36.8312 35.622C36.8312 35.0451 36.6204 34.5237 36.2322 34.1465C35.7995 33.7139 35.2448 33.4809 34.679 33.4809C33.492 33.4809 32.5379 34.4461 32.5379 35.622C32.549 36.3209 32.8707 36.9644 33.4254 37.3637ZM61.3928 71H24.4395C23.8404 71 23.3634 70.523 23.3634 69.9239V53.5606C23.3634 51.6081 24.9609 50.0106 26.9245 50.0106H58.9078C60.0393 50.0106 61.0711 50.5209 61.7478 51.4195C62.2137 52.0075 62.4689 52.7619 62.4689 53.5606V69.9239C62.4689 70.523 61.9807 71 61.3928 71ZM25.5156 68.8478H60.3167V53.5606C60.3167 53.25 60.2168 52.9615 60.0393 52.7286C59.762 52.3625 59.3515 52.1628 58.9078 52.1628H26.9245C26.1479 52.1628 25.5156 52.7951 25.5156 53.5606V68.8478Z" fill="white"/>
<path d="M21.0781 22.3761C20.8007 22.3761 20.5234 22.2652 20.3126 22.0655L16.9401 18.6819C16.4298 18.7373 15.8973 18.7706 15.3537 18.7706C8.85275 18.7706 3.56104 14.5661 3.56104 9.38531C3.56104 4.21563 8.85275 0 15.3648 0C21.8768 0 27.1574 4.21563 27.1574 9.38531C27.1574 12.4805 25.3048 15.3094 22.1653 17.0622V21.3C22.1653 21.7327 21.899 22.132 21.4996 22.2984C21.3665 22.3539 21.2223 22.3761 21.0781 22.3761ZM17.3284 16.4742C17.6168 16.4742 17.8831 16.5852 18.0938 16.7848L20.002 18.7041V16.4077C20.002 15.9972 20.2349 15.62 20.601 15.4425C23.3523 14.1002 24.9942 11.8259 24.9942 9.38531C24.9942 5.39156 20.6676 2.15219 15.3537 2.15219C10.0398 2.15219 5.71322 5.40266 5.71322 9.38531C5.71322 13.368 10.0398 16.6184 15.3537 16.6184C15.986 16.6184 16.5962 16.5741 17.162 16.4853C17.2174 16.4742 17.2729 16.4742 17.3284 16.4742Z" fill="white"/>
<path d="M63.5117 25.6931C61.3484 25.6931 59.5845 23.9292 59.5845 21.7659C59.5845 19.6027 61.3484 17.8387 63.5117 17.8387C65.6749 17.8387 67.4388 19.6027 67.4388 21.7659C67.4388 23.9292 65.6749 25.6931 63.5117 25.6931ZM63.5117 19.9909C62.5354 19.9909 61.7367 20.7897 61.7367 21.7659C61.7367 22.7422 62.5354 23.5409 63.5117 23.5409C64.4879 23.5409 65.2867 22.7422 65.2867 21.7659C65.2867 20.7897 64.4879 19.9909 63.5117 19.9909Z" fill="white"/>
<path d="M63.5118 32.2828C62.9127 32.2828 62.4357 31.8058 62.4357 31.2067V24.617C62.4357 24.018 62.9127 23.541 63.5118 23.541C64.1108 23.541 64.5879 24.018 64.5879 24.617V31.2067C64.5879 31.8058 64.0997 32.2828 63.5118 32.2828Z" fill="white"/>
<path d="M38.5841 58.1645H29.9532C29.3541 58.1645 28.8771 57.6875 28.8771 57.0884C28.8771 56.4894 29.3541 56.0123 29.9532 56.0123H38.5841C39.1832 56.0123 39.6602 56.4894 39.6602 57.0884C39.6602 57.6875 39.1721 58.1645 38.5841 58.1645Z" fill="white"/>
<path d="M38.5841 63.0458H29.9532C29.3541 63.0458 28.8771 62.5688 28.8771 61.9697C28.8771 61.3706 29.3541 60.8936 29.9532 60.8936H38.5841C39.1832 60.8936 39.6602 61.3706 39.6602 61.9697C39.6602 62.5688 39.1721 63.0458 38.5841 63.0458Z" fill="white"/>
</g>
<defs>
<clipPath id="clip0_29_36">
<rect width="71" height="71" fill="white"/>
</clipPath>
</defs>
</svg>
