<svg width="61" height="61" viewBox="0 0 61 61" fill="none" xmlns="http://www.w3.org/2000/svg">
<g clip-path="url(#clip0_29_49)">
<path d="M60.0469 37.1719H50.5156C50.2628 37.1719 50.0204 37.2723 49.8417 37.451C49.6629 37.6298 49.5625 37.8722 49.5625 38.125V46.3466H47.4218C47.5048 46.0302 47.5249 45.7005 47.4809 45.3764L44.7549 27.774V17.3945C44.7533 16.5173 44.4587 15.6657 43.9179 14.975C43.3771 14.2843 42.621 13.794 41.7698 13.582V11.4604C42.801 10.8337 43.6266 9.91938 44.1449 8.82973L44.1621 8.79923C44.5498 7.98568 44.7529 7.09649 44.7568 6.19529C44.7606 4.79688 44.2887 3.43875 43.4186 2.34398C42.5485 1.24922 41.332 0.482916 39.9688 0.170946C38.6056 -0.141024 37.1769 0.0198899 35.9173 0.627255C34.6576 1.23462 33.642 2.25232 33.0372 3.5132C33.0258 3.52845 33.0201 3.54751 33.0086 3.56467C32.3421 4.9388 32.2164 6.51324 32.6563 7.97575C33.0963 9.43826 34.0698 10.682 35.3838 11.4604V14.009C35.223 14.1002 35.0688 14.2028 34.9225 14.3159L30.4009 17.9378H28.1134C27.2665 17.9378 26.4544 18.2742 25.8556 18.873C25.2568 19.4718 24.9204 20.2839 24.9204 21.1308C24.9204 21.9776 25.2568 22.7897 25.8556 23.3885C26.4544 23.9873 27.2665 24.3237 28.1134 24.3237H31.8458C32.052 24.3237 32.2527 24.2568 32.4177 24.1331L33.8798 23.037V27.6692L31.3083 34.2553C31.0193 35.0219 30.9707 35.8584 31.1691 36.6534L33.6205 46.3219C33.7431 46.7588 33.9823 47.1542 34.3125 47.4656V49.7874L21.939 49.5625C21.8115 49.5524 21.6834 49.5719 21.5647 49.6195C21.446 49.6671 21.3399 49.7415 21.2547 49.837C21.1644 49.9255 21.0926 50.0311 21.0435 50.1476C20.9944 50.2641 20.969 50.3892 20.9688 50.5156V53.375H13.99C14.0014 53.3388 14.0262 53.3083 14.0357 53.2701L16.4853 43.6074C16.6829 42.8108 16.6331 41.9729 16.3423 41.2055L13.7669 34.6251V29.9929L15.229 31.089C15.394 31.2127 15.5947 31.2796 15.8009 31.2796H19.5333C19.9527 31.2796 20.3679 31.197 20.7552 31.0366C21.1426 30.8761 21.4946 30.6409 21.7911 30.3444C22.0876 30.0479 22.3228 29.696 22.4833 29.3086C22.6437 28.9212 22.7263 28.506 22.7263 28.0867C22.7263 27.6674 22.6437 27.2522 22.4833 26.8648C22.3228 26.4774 22.0876 26.1254 21.7911 25.8289C21.4946 25.5324 21.1426 25.2972 20.7552 25.1367C20.3679 24.9763 19.9527 24.8937 19.5333 24.8937H17.2573L12.7337 21.2718C12.5879 21.1601 12.4344 21.0589 12.2743 20.9687V18.4163C13.5881 17.6386 14.5616 16.3957 15.0019 14.9339C15.4422 13.4721 15.3171 11.8983 14.6514 10.5244C14.64 10.5053 14.6343 10.4863 14.6209 10.4691C13.9197 8.99411 12.6613 7.85808 11.1224 7.31094C9.58363 6.7638 7.89048 6.85036 6.41548 7.55159C4.94049 8.25281 3.80446 9.51126 3.25732 11.0501C2.71018 12.5889 2.79674 14.282 3.49797 15.757L3.51131 15.7818C4.02959 16.8731 4.85592 17.7889 5.88841 18.4163V20.5436C5.03715 20.7556 4.28109 21.2459 3.74027 21.9366C3.19944 22.6273 2.90483 23.4789 2.90322 24.3561V34.7338L0.173469 52.3437C0.117188 52.7743 0.175036 53.2121 0.341219 53.6133C0.235639 53.7003 0.150385 53.8094 0.0914393 53.9329C0.0324936 54.0564 0.00128391 54.1913 0 54.3281L0 60.0469C0 60.2996 0.100418 60.5421 0.279164 60.7208C0.457909 60.8996 0.700341 61 0.953125 61H60.0469C60.2997 61 60.5421 60.8996 60.7208 60.7208C60.8996 60.5421 61 60.2996 61 60.0469V38.125C61 37.8722 60.8996 37.6298 60.7208 37.451C60.5421 37.2723 60.2997 37.1719 60.0469 37.1719ZM28.5938 22.4156H28.1229C27.8682 22.4157 27.6192 22.3403 27.4074 22.1988C27.1956 22.0573 27.0305 21.8561 26.9331 21.6207C26.8358 21.3854 26.8104 21.1264 26.8604 20.8766C26.9103 20.6268 27.0332 20.3975 27.2136 20.2177C27.3319 20.097 27.4731 20.0011 27.6289 19.9357C27.7847 19.8702 27.952 19.8365 28.121 19.8364H28.5938V22.4156ZM19.0625 26.7999H19.5333C19.8746 26.7999 20.2019 26.9355 20.4432 27.1768C20.6845 27.4181 20.8201 27.7454 20.8201 28.0867C20.8201 28.4279 20.6845 28.7552 20.4432 28.9965C20.2019 29.2378 19.8746 29.3734 19.5333 29.3734H19.0625V26.7999ZM45.5956 45.6547C45.607 45.7354 45.601 45.8177 45.578 45.896C45.555 45.9742 45.5155 46.0466 45.4622 46.1084C45.3793 46.1739 45.2813 46.2177 45.1772 46.2358C45.0731 46.254 44.9661 46.2458 44.866 46.2121C44.7658 46.1784 44.6756 46.1202 44.6037 46.0428C44.5317 45.9655 44.4802 45.8714 44.4538 45.769L39.1277 28.8034H42.984L45.5956 45.6547ZM38.5425 45.3783L37.3263 35.6278L38.7674 34.0437L42.6028 46.2551C42.6028 46.2875 42.6314 46.3123 42.639 46.3447H38.4395C38.5141 46.1334 38.559 45.9127 38.573 45.689C38.576 45.5855 38.5684 45.482 38.5501 45.3802L38.5425 45.3783ZM38.5672 1.91576C39.1295 1.91526 39.6863 2.0256 40.2058 2.24046C40.7254 2.45533 41.1975 2.77051 41.5951 3.16797C41.9928 3.56544 42.3082 4.03739 42.5233 4.55685C42.7384 5.0763 42.8489 5.63306 42.8487 6.19529C42.8431 6.63362 42.7691 7.06839 42.6295 7.48392H41.7698V5.44804C41.7698 5.22832 41.6939 5.01533 41.555 4.84511C41.416 4.6749 41.2225 4.55792 41.0072 4.51398L35.3781 3.39692C35.7746 2.93695 36.2651 2.5674 36.8166 2.3132C37.368 2.059 37.9676 1.92607 38.5749 1.92338L38.5672 1.91576ZM34.303 6.19529C34.3073 5.84439 34.3553 5.4954 34.4459 5.15638L39.8635 6.2296V8.43704C39.8635 8.68983 39.9639 8.93226 40.1427 9.111C40.3214 9.28975 40.5638 9.39017 40.8166 9.39017H41.3885C40.7752 9.93897 40.0158 10.2979 39.2024 10.4235C38.3891 10.5491 37.5567 10.4359 36.8065 10.0976C36.0562 9.75927 35.4203 9.21047 34.9759 8.51777C34.5315 7.82508 34.2977 7.01827 34.303 6.19529ZM39.8635 12.2362V13.4543H37.3854C37.353 13.4543 37.3225 13.4543 37.292 13.4543V12.2362C38.1398 12.4217 39.0157 12.4217 39.8635 12.2362ZM31.5389 22.4156H30.5V19.8421H30.7345C30.9512 19.8427 31.1616 19.7694 31.3311 19.6344L36.1139 15.8066C36.4754 15.5193 36.9236 15.3627 37.3854 15.3624H40.8166C41.3553 15.3635 41.8715 15.5779 42.2524 15.9587C42.6333 16.3396 42.8477 16.8559 42.8487 17.3945V26.8934H35.7956V21.8742C35.7898 21.7949 35.7738 21.7168 35.7479 21.6416L38.3995 19.6515C38.6017 19.4998 38.7354 19.274 38.7712 19.0238C38.8069 18.7736 38.7418 18.5194 38.5901 18.3171C38.4385 18.1149 38.2127 17.9812 37.9624 17.9455C37.7122 17.9097 37.458 17.9748 37.2558 18.1265L31.5389 22.4156ZM33.0201 36.1882C32.916 35.7767 32.9393 35.3433 33.0868 34.9454L35.4944 28.8015H37.1299L38.1155 31.9411L35.6373 34.6709C35.5445 34.773 35.4749 34.8941 35.4334 35.0257C35.392 35.1574 35.3796 35.2964 35.3972 35.4334L36.6743 45.6947C36.6738 45.8577 36.6087 46.0138 36.4933 46.1288C36.3779 46.2439 36.2216 46.3085 36.0586 46.3085C35.9252 46.304 35.7966 46.257 35.6917 46.1744C35.5868 46.0918 35.511 45.9778 35.4753 45.8491L33.0201 36.1882ZM14.5676 41.8955C14.7171 42.2943 14.7417 42.7291 14.6381 43.1422L12.2 52.8031C12.1496 52.9397 12.0525 53.054 11.9259 53.1258C11.7993 53.1976 11.6513 53.2221 11.5082 53.1952C11.3652 53.1682 11.2363 53.0914 11.1445 52.9785C11.0527 52.8655 11.0039 52.7237 11.0067 52.5782L12.2762 42.395C12.2938 42.2581 12.2814 42.119 12.24 41.9873C12.1985 41.8557 12.1289 41.7346 12.0361 41.6325L9.55794 38.9027L10.5435 35.7612H12.179L14.5676 41.8955ZM9.23006 53.375H4.99056C4.99056 53.3483 5.01725 53.3254 5.02297 53.2968L8.88122 41.0034L10.3223 42.5856L9.11759 52.2655C9.09292 52.3911 9.08142 52.5189 9.08328 52.6468C9.09485 52.8956 9.14434 53.1411 9.23006 53.375ZM13.3533 13.1531C13.3575 13.9752 13.1232 14.7809 12.6788 15.4725C12.2345 16.1642 11.5991 16.7122 10.8497 17.0501C10.1002 17.388 9.26885 17.5013 8.4563 17.3764C7.64375 17.2514 6.88486 16.8935 6.27156 16.3461H6.84344C7.09622 16.3461 7.33865 16.2457 7.5174 16.0669C7.69614 15.8882 7.79656 15.6457 7.79656 15.3929V13.1893L13.2141 12.1161C13.3033 12.4547 13.3501 12.803 13.3533 13.1531ZM10.3681 19.194V20.4235C10.3357 20.4235 10.3052 20.4235 10.2747 20.4235H7.79656V19.2035C8.64435 19.389 9.52222 19.389 10.37 19.2035L10.3681 19.194ZM5.03059 14.4417C4.8896 14.0264 4.81434 13.5916 4.80756 13.1531C4.80404 12.2835 5.0671 11.4336 5.56131 10.718C6.05551 10.0024 6.75713 9.45546 7.57168 9.15078C8.38622 8.84611 9.27457 8.79835 10.1171 9.01395C10.9596 9.22955 11.7158 9.69815 12.2839 10.3566L6.65472 11.4737C6.43943 11.5176 6.24594 11.6346 6.10699 11.8048C5.96805 11.975 5.89217 12.188 5.89222 12.4078V14.4398L5.03059 14.4417ZM4.81137 24.3542C4.81238 23.8156 5.0268 23.2993 5.40767 22.9185C5.78853 22.5376 6.30481 22.3232 6.84344 22.3222H10.2747C10.7359 22.3226 11.1834 22.4791 11.5443 22.7663L16.327 26.5922C16.4965 26.7272 16.707 26.8005 16.9237 26.7999H17.1562V29.3715H16.1193L10.4005 25.0824C10.3004 25.0073 10.1864 24.9527 10.0652 24.9216C9.94392 24.8905 9.81774 24.8837 9.69383 24.9014C9.44359 24.9371 9.2178 25.0708 9.06612 25.273C8.91445 25.4753 8.84933 25.7295 8.88508 25.9797C8.92083 26.23 9.05452 26.4557 9.25675 26.6074L11.9083 28.5937C11.8823 28.6695 11.8663 28.7483 11.8607 28.8282V33.8474H4.80756L4.81137 24.3542ZM4.67603 35.7574H8.53047L3.18153 52.8031C3.07669 53.2892 2.33134 53.2168 2.19409 53.0604C2.14173 53 2.10263 52.9292 2.07932 52.8527C2.056 52.7762 2.049 52.6957 2.05875 52.6163L4.67603 35.7574ZM59.0938 59.0937H1.90625V55.2812H21.9219C22.1747 55.2812 22.4171 55.1808 22.5958 55.0021C22.7746 54.8233 22.875 54.5809 22.875 54.3281V51.4859L35.2485 51.707C35.5019 51.6997 35.7445 51.6024 35.9328 51.4325C36.0231 51.344 36.0949 51.2384 36.144 51.1219C36.1931 51.0054 36.2185 50.8803 36.2188 50.7539V48.2529H50.5156C50.7684 48.2529 51.0108 48.1525 51.1896 47.9737C51.3683 47.795 51.4688 47.5525 51.4688 47.2998V39.0781H59.0938V59.0937Z" fill="white"/>
</g>
<defs>
<clipPath id="clip0_29_49">
<rect width="61" height="61" fill="white"/>
</clipPath>
</defs>
</svg>
