<svg width="59" height="59" viewBox="0 0 59 59" fill="none" xmlns="http://www.w3.org/2000/svg">
<path d="M23.0469 11.0625V20.2813C23.0469 20.5257 23.144 20.7602 23.3169 20.9331C23.4898 21.106 23.7242 21.2031 23.9687 21.2031H35.0312C35.2757 21.2031 35.5102 21.106 35.6831 20.9331C35.856 20.7602 35.9531 20.5257 35.9531 20.2813V11.0625C35.9531 10.329 35.6617 9.62556 35.1431 9.10691C34.6244 8.58825 33.921 8.29688 33.1875 8.29688H32.0757C32.7509 7.76208 33.2429 7.03037 33.4834 6.20329C33.7239 5.3762 33.701 4.49477 33.4179 3.68129C33.1348 2.86781 32.6054 2.16263 31.9034 1.66361C31.2013 1.1646 30.3613 0.896484 29.5 0.896484C28.6387 0.896484 27.7987 1.1646 27.0966 1.66361C26.3945 2.16263 25.8652 2.86781 25.5821 3.68129C25.2989 4.49477 25.2761 5.3762 25.5166 6.20329C25.7571 7.03037 26.2491 7.76208 26.9243 8.29688H25.8125C25.079 8.29688 24.3756 8.58825 23.8569 9.10691C23.3382 9.62556 23.0469 10.329 23.0469 11.0625ZM29.5 2.76563C29.9558 2.76563 30.4014 2.90079 30.7804 3.15404C31.1594 3.40728 31.4548 3.76722 31.6292 4.18835C31.8037 4.60947 31.8493 5.07287 31.7604 5.51994C31.6715 5.967 31.452 6.37766 31.1297 6.69997C30.8073 7.02229 30.3967 7.24179 29.9496 7.33072C29.5025 7.41964 29.0392 7.374 28.618 7.19957C28.1969 7.02513 27.837 6.72973 27.5837 6.35073C27.3305 5.97173 27.1953 5.52614 27.1953 5.07031C27.1953 4.45907 27.4381 3.87287 27.8703 3.44065C28.3025 3.00844 28.8888 2.76563 29.5 2.76563ZM33.1875 10.1406C33.432 10.1406 33.6665 10.2378 33.8394 10.4106C34.0122 10.5835 34.1094 10.818 34.1094 11.0625V19.3594H24.8906V11.0625C24.8906 10.818 24.9877 10.5835 25.1606 10.4106C25.3335 10.2378 25.568 10.1406 25.8125 10.1406H33.1875ZM37.7416 36.9672C37.6849 36.7546 37.5854 36.5559 37.4492 36.3831C37.3131 36.2103 37.1431 36.0672 36.9497 35.9623L36.6464 35.7936C36.7054 35.2877 36.7054 34.7766 36.6464 34.2707L36.9487 34.1029C37.1423 33.998 37.3125 33.8547 37.4488 33.6817C37.5851 33.5088 37.6847 33.3099 37.7416 33.0972C37.7983 32.8883 37.8119 32.67 37.7815 32.4557C37.751 32.2414 37.6772 32.0356 37.5646 31.8508L36.3772 29.8853C36.1492 29.5181 35.7892 29.2521 35.3712 29.142C34.9532 29.0319 34.5089 29.0861 34.1296 29.2935L33.783 29.4853C33.3373 29.1656 32.8571 28.8972 32.3514 28.6851V28.3652C32.3465 27.9286 32.1687 27.5117 31.8569 27.206C31.5452 26.9003 31.1249 26.7307 30.6883 26.7344H28.3117C27.8757 26.7317 27.4564 26.9017 27.1454 27.2073C26.8345 27.5129 26.6572 27.9292 26.6523 28.3652V28.6851C26.1467 28.8974 25.6664 29.1658 25.2206 29.4853L24.8749 29.2953C24.4962 29.0872 24.0521 29.0322 23.634 29.1416C23.2159 29.251 22.8557 29.5165 22.6274 29.8835L21.4382 31.8517C21.3258 32.0363 21.2523 32.2419 21.222 32.4558C21.1917 32.6698 21.2054 32.8877 21.2621 33.0962C21.3188 33.3088 21.4183 33.5075 21.5545 33.6803C21.6906 33.8531 21.8606 33.9963 22.054 34.1011L22.3573 34.2698C22.2983 34.7757 22.2983 35.2868 22.3573 35.7927L22.0549 35.9605C21.8614 36.0655 21.6912 36.2088 21.5549 36.3817C21.4186 36.5546 21.319 36.7535 21.2621 36.9663C21.2053 37.1751 21.1918 37.3934 21.2222 37.6077C21.2526 37.822 21.3264 38.0278 21.4391 38.2126L22.6265 40.1772C22.8546 40.5442 23.2146 40.8101 23.6325 40.9202C24.0505 41.0302 24.4947 40.9761 24.874 40.769L25.2206 40.5773C25.6663 40.8969 26.1466 41.1653 26.6523 41.3774V41.6973C26.6572 42.1333 26.8345 42.5496 27.1454 42.8552C27.4564 43.1608 27.8757 43.3308 28.3117 43.3281H30.6883C31.1243 43.3308 31.5436 43.1608 31.8545 42.8552C32.1655 42.5496 32.3428 42.1333 32.3477 41.6973V41.3774C32.8533 41.1651 33.3336 40.8967 33.7793 40.5773L34.125 40.7672C34.5037 40.9755 34.9479 41.0307 35.3661 40.9213C35.7842 40.8118 36.1445 40.5462 36.3726 40.179L37.5618 38.2108C37.6747 38.0266 37.7488 37.8213 37.7797 37.6075C37.8106 37.3937 37.7976 37.1758 37.7416 36.9672ZM34.8469 35.0313C34.847 35.2589 34.8304 35.4863 34.7971 35.7116C34.7555 36.0347 34.8124 36.3628 34.9605 36.653C35.1085 36.9432 35.3408 37.1818 35.6268 37.3378L35.8582 37.4668L34.8837 39.0801L34.5823 38.9133C34.2952 38.7603 33.9706 38.6916 33.6462 38.7153C33.3217 38.7389 33.0106 38.8539 32.7487 39.0469C32.3839 39.3153 31.9865 39.5362 31.5659 39.7042C31.2571 39.8218 30.9907 40.0296 30.8015 40.3005C30.6123 40.5715 30.5089 40.893 30.5048 41.2235V41.4844H28.4924V41.2235C28.4884 40.8931 28.385 40.5716 28.1958 40.3008C28.0065 40.03 27.7401 39.8225 27.4313 39.7052C27.0103 39.5361 26.6123 39.3146 26.2467 39.046C25.9845 38.8533 25.6731 38.7387 25.3485 38.7153C25.0239 38.692 24.6993 38.761 24.4122 38.9142L24.1135 39.0801L23.1391 37.4668L23.3695 37.3387C23.6561 37.1824 23.8887 36.9431 24.0368 36.6522C24.1848 36.3614 24.2415 36.0325 24.1992 35.7088C24.1675 35.4844 24.1521 35.2579 24.1531 35.0313C24.1529 34.8036 24.1696 34.5762 24.2029 34.3509C24.2445 34.0278 24.1876 33.6997 24.0395 33.4095C23.8915 33.1194 23.6592 32.8807 23.3732 32.7247L23.1418 32.5957L24.1162 30.9824L24.4177 31.1492C24.7049 31.302 25.0294 31.3705 25.3538 31.3469C25.6782 31.3232 25.9893 31.2084 26.2513 31.0156C26.6161 30.7472 27.0135 30.5263 27.4341 30.3583C27.7429 30.2407 28.0093 30.0329 28.1985 29.762C28.3877 29.4911 28.4911 29.1695 28.4952 28.839V28.5781H30.5104V28.839C30.5144 29.1694 30.6177 29.4909 30.807 29.7617C30.9962 30.0325 31.2626 30.24 31.5714 30.3573C31.9924 30.5264 32.3904 30.7479 32.7561 31.0165C33.018 31.2098 33.3295 31.3248 33.6542 31.3482C33.979 31.3715 34.3037 31.3022 34.5906 31.1483L34.8893 30.9824L35.8637 32.5957L35.6332 32.7238C35.3467 32.8801 35.1141 33.1194 34.966 33.4103C34.8179 33.7011 34.7613 34.03 34.8035 34.3537C34.8343 34.5782 34.8488 34.8046 34.8469 35.0313Z" fill="white"/>
<path d="M29.5 31.8047C28.8618 31.8047 28.238 31.9939 27.7074 32.3484C27.1768 32.703 26.7633 33.2069 26.519 33.7965C26.2748 34.3861 26.2109 35.0348 26.3354 35.6607C26.4599 36.2866 26.7672 36.8615 27.2185 37.3128C27.6697 37.764 28.2446 38.0713 28.8705 38.1958C29.4964 38.3203 30.1452 38.2564 30.7348 38.0122C31.3243 37.768 31.8283 37.3544 32.1828 36.8238C32.5373 36.2932 32.7266 35.6694 32.7266 35.0312C32.7266 34.1755 32.3866 33.3548 31.7815 32.7497C31.1764 32.1446 30.3557 31.8047 29.5 31.8047ZM29.5 36.414C29.2265 36.414 28.9592 36.3329 28.7318 36.181C28.5043 36.029 28.3271 35.8131 28.2224 35.5604C28.1178 35.3077 28.0904 35.0297 28.1438 34.7615C28.1971 34.4932 28.3288 34.2468 28.5222 34.0534C28.7156 33.86 28.962 33.7283 29.2302 33.675C29.4985 33.6216 29.7765 33.649 30.0292 33.7537C30.2819 33.8583 30.4978 34.0356 30.6498 34.263C30.8017 34.4904 30.8828 34.7577 30.8828 35.0312C30.8828 35.398 30.7371 35.7497 30.4778 36.009C30.2185 36.2684 29.8667 36.414 29.5 36.414ZM11.3529 26.4264L9.62622 25.7811C9.40405 26.3748 9.20769 26.9796 9.04267 27.5935L10.821 28.0775C10.9703 27.5244 11.1547 26.9685 11.3529 26.4264ZM38.6155 16.1042C39.129 16.3808 39.6296 16.6776 40.1071 16.9911L41.1212 15.4497C40.5908 15.1015 40.0451 14.7773 39.4858 14.478L38.6155 16.1042ZM50.6192 35.0856C50.6755 34.4597 50.7031 33.8208 50.7031 33.1875V33.1017L48.8594 33.1875C48.8594 33.7664 48.8336 34.3509 48.7829 34.9234L50.6192 35.0856ZM46.0845 23.1944C46.3814 23.6848 46.6598 24.1983 46.9142 24.7182L48.5736 23.9107C48.297 23.34 47.991 22.7795 47.6665 22.2421L46.0845 23.1944ZM37.123 50.9889L37.8503 52.6824C38.4333 52.4326 39.0043 52.1558 39.5613 51.8527L38.6865 50.2302C38.1831 50.5049 37.6567 50.7593 37.123 50.9889ZM12.8519 23.2985L11.2681 22.3573C10.9427 22.903 10.6412 23.4635 10.3702 24.0314L12.0295 24.8298C12.2794 24.3126 12.5559 23.7973 12.8519 23.2985ZM47.6029 26.3103C47.8066 26.8496 47.99 27.4046 48.1458 27.9604L49.9205 27.4617C49.7502 26.8512 49.5518 26.2489 49.3258 25.6567L47.6029 26.3103ZM30.3896 52.5266L30.4744 54.3703C31.1068 54.3406 31.7377 54.2837 32.3652 54.1998L32.1209 52.3726C31.5462 52.4482 30.9686 52.4996 30.3896 52.5266ZM14.8874 20.4887L13.4963 19.2782C13.0808 19.757 12.6862 20.2534 12.3135 20.7661L13.8069 21.8484C14.148 21.3773 14.5112 20.9201 14.8874 20.4887ZM48.5367 29.6502C48.6418 30.219 48.7211 30.798 48.7746 31.3705L50.6109 31.1999C50.552 30.5689 50.4649 29.9408 50.35 29.3174L48.5367 29.6502ZM19.3981 14.5407C18.845 14.8412 18.2992 15.1704 17.7701 15.5216L18.7915 17.0547C19.2736 16.734 19.7697 16.435 20.2785 16.1586L19.3981 14.5407ZM19.4728 51.8739C20.0259 52.1707 20.6011 52.4491 21.1902 52.7036L21.913 51.0073C21.3795 50.7804 20.8565 50.5294 20.3458 50.2551L19.4728 51.8739ZM14.8081 17.9009L16.0849 19.2294C16.5043 18.8274 16.9431 18.4421 17.3893 18.0844L16.237 16.6463C15.7484 17.0362 15.2681 17.4594 14.8081 17.9009ZM8.62598 29.4484C8.51512 30.0725 8.43207 30.7012 8.37708 31.3327L10.2135 31.4931C10.2646 30.916 10.3405 30.3415 10.4412 29.771L8.62598 29.4484ZM8.29688 33.2317C8.29688 33.8586 8.3273 34.4965 8.38906 35.1289L10.2254 34.9639C10.1688 34.387 10.1405 33.8077 10.1406 33.228L8.29688 33.2317ZM26.6772 54.2062C27.2986 54.2901 27.9374 54.3454 28.5726 54.3731L28.6519 52.5293C28.0734 52.5049 27.4963 52.4541 26.9224 52.3772L26.6772 54.2062ZM44.0334 20.3974C44.4159 20.8325 44.7819 21.287 45.1203 21.7489L46.6082 20.6592C46.2394 20.1522 45.8356 19.6544 45.4162 19.1787L44.0334 20.3974ZM41.5148 18.007C41.9684 18.3674 42.4099 18.75 42.8257 19.1464L44.097 17.8097C43.636 17.3764 43.1576 16.9569 42.6616 16.5633L41.5148 18.007ZM33.8273 52.0619L34.2384 53.8587C34.8563 53.7177 35.4675 53.5488 36.0702 53.3526L35.5014 51.601C34.952 51.7771 34.3859 51.9329 33.8273 52.0619ZM22.9713 53.3664C23.5687 53.56 24.1863 53.7296 24.8077 53.8697L25.2133 52.0702C24.6473 51.943 24.0849 51.7937 23.5401 51.6093L22.9713 53.3664ZM13.8281 45.1719H12.7163C13.3915 44.6371 13.8835 43.9053 14.1241 43.0783C14.3646 42.2512 14.3417 41.3697 14.0585 40.5563C13.7754 39.7428 13.2461 39.0376 12.544 38.5386C11.842 38.0396 11.002 37.7715 10.1406 37.7715C9.27928 37.7715 8.4393 38.0396 7.73723 38.5386C7.03517 39.0376 6.50585 39.7428 6.22271 40.5563C5.93958 41.3697 5.91668 42.2512 6.15719 43.0783C6.39771 43.9053 6.8897 44.6371 7.56491 45.1719H6.45312C5.71964 45.1719 5.01619 45.4632 4.49753 45.9819C3.97888 46.5005 3.6875 47.204 3.6875 47.9375V57.1562C3.6875 57.4007 3.78463 57.6352 3.95751 57.8081C4.1304 57.981 4.36488 58.0781 4.60938 58.0781H15.6719C15.9164 58.0781 16.1509 57.981 16.3237 57.8081C16.4966 57.6352 16.5938 57.4007 16.5938 57.1562V47.9375C16.5938 47.204 16.3024 46.5005 15.7837 45.9819C15.2651 45.4632 14.5616 45.1719 13.8281 45.1719ZM10.1406 39.6406C10.5964 39.6406 11.042 39.7758 11.421 40.029C11.8 40.2823 12.0954 40.6422 12.2699 41.0633C12.4443 41.4845 12.49 41.9478 12.401 42.3949C12.3121 42.842 12.0926 43.2526 11.7703 43.575C11.448 43.8973 11.0373 44.1168 10.5902 44.2057C10.1432 44.2946 9.67979 44.249 9.25866 44.0745C8.83753 43.9001 8.47759 43.6047 8.22435 43.2257C7.9711 42.8467 7.83594 42.4011 7.83594 41.9453C7.83594 41.334 8.07875 40.7478 8.51096 40.3156C8.94318 39.8834 9.52938 39.6406 10.1406 39.6406ZM14.75 56.2344H5.53125V47.9375C5.53125 47.693 5.62838 47.4585 5.80126 47.2856C5.97415 47.1127 6.20863 47.0156 6.45312 47.0156H13.8281C14.0726 47.0156 14.3071 47.1127 14.48 47.2856C14.6529 47.4585 14.75 47.693 14.75 47.9375V56.2344ZM52.5469 45.1719H51.4351C52.1103 44.6371 52.6023 43.9053 52.8428 43.0783C53.0833 42.2512 53.0604 41.3697 52.7773 40.5563C52.4942 39.7428 51.9648 39.0376 51.2628 38.5386C50.5607 38.0396 49.7207 37.7715 48.8594 37.7715C47.998 37.7715 47.158 38.0396 46.456 38.5386C45.7539 39.0376 45.2246 39.7428 44.9415 40.5563C44.6583 41.3697 44.6354 42.2512 44.8759 43.0783C45.1165 43.9053 45.6085 44.6371 46.2837 45.1719H45.1719C44.4384 45.1719 43.7349 45.4632 43.2163 45.9819C42.6976 46.5005 42.4062 47.204 42.4062 47.9375V57.1562C42.4062 57.4007 42.5034 57.6352 42.6763 57.8081C42.8491 57.981 43.0836 58.0781 43.3281 58.0781H54.3906C54.6351 58.0781 54.8696 57.981 55.0425 57.8081C55.2154 57.6352 55.3125 57.4007 55.3125 57.1562V47.9375C55.3125 47.204 55.0211 46.5005 54.5025 45.9819C53.9838 45.4632 53.2804 45.1719 52.5469 45.1719ZM48.8594 39.6406C49.3152 39.6406 49.7608 39.7758 50.1398 40.029C50.5188 40.2823 50.8142 40.6422 50.9886 41.0633C51.1631 41.4845 51.2087 41.9478 51.1198 42.3949C51.0308 42.842 50.8114 43.2526 50.489 43.575C50.1667 43.8973 49.7561 44.1168 49.309 44.2057C48.8619 44.2946 48.3985 44.249 47.9774 44.0745C47.5563 43.9001 47.1963 43.6047 46.9431 43.2257C46.6899 42.8467 46.5547 42.4011 46.5547 41.9453C46.5547 41.334 46.7975 40.7478 47.2297 40.3156C47.6619 39.8834 48.2481 39.6406 48.8594 39.6406ZM53.4688 56.2344H44.25V47.9375C44.25 47.693 44.3471 47.4585 44.52 47.2856C44.6929 47.1127 44.9274 47.0156 45.1719 47.0156H52.5469C52.7914 47.0156 53.0259 47.1127 53.1987 47.2856C53.3716 47.4585 53.4688 47.693 53.4688 47.9375V56.2344Z" fill="white"/>
</svg>
